<mxfile host="app.diagrams.net" modified="2024-07-16T12:53:07.169Z" agent="Mozilla/5.0 (Linux; Android 10; K) AppleWebKit/537.36 (KHTML, like Gecko) Chrome/126.0.0.0 Mobile Safari/537.36" version="24.6.5" etag="ZWKiJPIod-UZwxw8Ohnq" type="github">
  <diagram name="Page-1" id="GlA3keqeLJtEN10y_cQ6">
    <mxGraphModel>
      <root>
        <mxCell id="0" />
        <mxCell id="1" parent="0" />
      </root>
    </mxGraphModel>
  </diagram>
</mxfile>
